<?xml version="1.0" standalone="no"?>
<!DOCTYPE svg PUBLIC "-//W3C//DTD SVG 20010904//EN"
 "http://www.w3.org/TR/2001/REC-SVG-20010904/DTD/svg10.dtd">
<svg version="1.0" xmlns="http://www.w3.org/2000/svg"
 width="80.000000pt" height="80.000000pt" viewBox="0 0 80.000000 80.000000"
 preserveAspectRatio="xMidYMid meet">

<g transform="translate(0.000000,80.000000) scale(0.100000,-0.100000)"
fill="#000000" stroke="none">
<path d="M314 690 c-22 -11 -55 -36 -74 -55 -30 -31 -31 -35 -16 -50 15 -16
17 -29 20 -116 1 -20 8 -45 17 -55 8 -11 20 -30 27 -44 7 -14 17 -32 24 -41
18 -26 3 -46 -59 -78 -86 -43 -113 -72 -113 -121 l0 -40 166 0 c107 0 163 3
159 10 -3 6 -14 10 -24 10 -14 0 -20 10 -25 41 -7 44 -1 63 19 55 18 -6 27 5
15 19 -7 8 -2 19 14 34 15 14 22 30 19 41 -3 11 4 31 16 46 12 15 21 31 21 36
0 6 9 21 19 34 16 20 19 39 18 113 -2 96 -10 114 -62 138 -16 8 -41 21 -55 28
-35 20 -78 18 -126 -5z m129 -20 c14 -11 30 -20 37 -20 6 0 22 -11 35 -25 20
-19 25 -34 25 -72 l-1 -48 -14 40 c-16 45 -42 69 -65 59 -16 -7 -65 -20 -114
-29 -16 -4 -42 -20 -58 -37 l-28 -30 0 34 c0 19 -5 39 -12 46 -25 25 77 101
138 102 17 0 43 -9 57 -20z m67 -166 c0 -34 3 -42 15 -38 10 4 15 0 15 -10 0
-9 -6 -19 -14 -22 -8 -3 -18 -18 -21 -34 -13 -59 -85 -99 -139 -76 -37 15 -76
60 -76 86 0 10 -7 20 -15 24 -8 3 -15 13 -15 22 0 10 5 14 15 10 11 -4 15 2
15 20 0 38 42 74 87 74 21 1 52 7 68 14 27 13 32 12 48 -6 10 -13 17 -37 17
-64z m-110 -208 c14 0 33 4 43 8 24 11 22 -12 -5 -41 -27 -29 -45 -29 -75 -1
-28 26 -32 54 -5 42 9 -4 28 -8 42 -8z m-40 -66 c0 -5 -7 -11 -15 -14 -16 -6
-38 31 -28 47 5 9 43 -21 43 -33z m-51 -20 c12 -35 14 -35 45 -14 31 19 38 7
30 -45 l-7 -41 -108 0 -109 0 0 28 c0 32 17 50 75 80 53 28 61 27 74 -8z"/>
<path d="M330 455 c0 -8 7 -15 15 -15 8 0 15 7 15 15 0 8 -7 15 -15 15 -8 0
-15 -7 -15 -15z"/>
<path d="M440 455 c0 -8 7 -15 15 -15 8 0 15 7 15 15 0 8 -7 15 -15 15 -8 0
-15 -7 -15 -15z"/>
<path d="M180 140 c0 -5 5 -10 10 -10 6 0 10 5 10 10 0 6 -4 10 -10 10 -5 0
-10 -4 -10 -10z"/>
<path d="M220 140 c0 -5 5 -10 10 -10 6 0 10 5 10 10 0 6 -4 10 -10 10 -5 0
-10 -4 -10 -10z"/>
<path d="M260 140 c0 -5 5 -10 10 -10 6 0 10 5 10 10 0 6 -4 10 -10 10 -5 0
-10 -4 -10 -10z"/>
<path d="M300 140 c0 -5 5 -10 10 -10 6 0 10 5 10 10 0 6 -4 10 -10 10 -5 0
-10 -4 -10 -10z"/>
<path d="M340 140 c0 -5 5 -10 10 -10 6 0 10 5 10 10 0 6 -4 10 -10 10 -5 0
-10 -4 -10 -10z"/>
<path d="M606 323 c-7 -21 -59 -53 -86 -53 -24 0 -42 -31 -29 -51 5 -7 9 -30
9 -49 0 -19 -4 -42 -9 -49 -13 -20 5 -51 29 -51 27 0 79 -32 86 -52 7 -22 64
-25 64 -4 0 18 68 59 86 52 18 -7 47 35 34 48 -13 13 -13 99 0 112 13 13 -16
55 -34 48 -18 -7 -86 34 -86 52 0 21 -57 18 -64 -3z m54 -23 c6 -11 17 -20 24
-20 8 0 19 -7 26 -15 7 -8 23 -15 36 -15 23 0 32 -19 17 -33 -3 -4 -6 -25 -6
-47 0 -22 3 -43 6 -47 15 -14 6 -33 -17 -33 -13 0 -29 -7 -36 -15 -7 -8 -18
-15 -25 -15 -7 0 -20 -10 -29 -23 l-16 -22 -16 22 c-9 13 -22 23 -29 23 -7 0
-18 7 -25 15 -7 8 -22 15 -34 15 -20 0 -21 5 -21 80 0 75 1 80 21 80 12 0 27
7 34 15 7 8 18 15 26 15 7 0 18 9 24 20 6 11 15 20 20 20 5 0 14 -9 20 -20z"/>
<path d="M585 225 c-50 -49 -15 -135 55 -135 41 0 80 39 80 80 0 41 -39 80
-80 80 -19 0 -40 -9 -55 -25z m95 -15 c11 -11 20 -29 20 -40 0 -26 -34 -60
-60 -60 -11 0 -29 9 -40 20 -11 11 -20 29 -20 40 0 11 9 29 20 40 11 11 29 20
40 20 11 0 29 -9 40 -20z"/>
</g>
</svg>
