<svg width="28" height="28" viewBox="0 0 28 28" fill="none" xmlns="http://www.w3.org/2000/svg">
<path fill-rule="evenodd" clip-rule="evenodd" d="M13.8187 25.2715C9.51156 25.2715 5.83337 24.6013 5.83337 21.9171C5.83337 19.2328 9.48822 16.7549 13.8187 16.7549C18.1258 16.7549 21.804 19.2088 21.804 21.893C21.804 24.5762 18.1491 25.2715 13.8187 25.2715Z" stroke="#424242" stroke-width="1.5" stroke-linecap="round" stroke-linejoin="round"/>
<path fill-rule="evenodd" clip-rule="evenodd" d="M13.8102 13.0357C16.6367 13.0357 18.9276 10.7448 18.9276 7.91829C18.9276 5.09177 16.6367 2.7998 13.8102 2.7998C10.9837 2.7998 8.69168 5.09177 8.69168 7.91829C8.68213 10.7353 10.9571 13.0262 13.7741 13.0357C13.7868 13.0357 13.7985 13.0357 13.8102 13.0357Z" stroke="#424242" stroke-width="1.5" stroke-linecap="round" stroke-linejoin="round"/>
</svg>
