<svg width="46" height="46" viewBox="0 0 46 46" fill="none" xmlns="http://www.w3.org/2000/svg">
<path d="M15.8977 10.2158C17.0279 10.2158 18.1118 10.6648 18.911 11.4639C19.7101 12.2631 20.1591 13.347 20.1591 14.4772V31.5226C20.1591 32.6528 19.7101 33.7367 18.911 34.5359C18.1118 35.335 17.0279 35.784 15.8977 35.784C14.7675 35.784 13.6836 35.335 12.8845 34.5359C12.0853 33.7367 11.6364 32.6528 11.6364 31.5226V14.4772C11.6364 13.347 12.0853 12.2631 12.8845 11.4639C13.6836 10.6648 14.7675 10.2158 15.8977 10.2158ZM30.1023 10.2158C31.2324 10.2158 32.3163 10.6648 33.1155 11.4639C33.9147 12.2631 34.3636 13.347 34.3636 14.4772V31.5226C34.3636 32.6528 33.9147 33.7367 33.1155 34.5359C32.3163 35.335 31.2324 35.784 30.1023 35.784C28.9721 35.784 27.8882 35.335 27.089 34.5359C26.2899 33.7367 25.8409 32.6528 25.8409 31.5226V14.4772C25.8409 13.347 26.2899 12.2631 27.089 11.4639C27.8882 10.6648 28.9721 10.2158 30.1023 10.2158Z" fill="white"/>
</svg>
