<svg width="24" height="24" viewBox="0 0 24 24" fill="none" xmlns="http://www.w3.org/2000/svg">
<path fill-rule="evenodd" clip-rule="evenodd" d="M12 1.5C9.62449 1.5 9.3999 5.63761 7.98563 7.0995C6.57137 8.5614 2.17457 6.8899 1.56368 9.4847C0.954087 12.0808 4.90941 12.9617 5.39709 15.189C5.88733 17.4163 3.47076 20.5457 5.53569 22.1031C7.60062 23.6592 9.82341 20.1372 12 20.1372C14.1766 20.1372 16.3994 23.6592 18.4643 22.1031C20.5292 20.5457 18.1139 17.4163 18.6029 15.189C19.0919 12.9617 23.0459 12.0808 22.4363 9.4847C21.8267 6.8899 17.4286 8.5614 16.0156 7.0995C14.6014 5.63761 14.3755 1.5 12 1.5Z" stroke="#424242" stroke-width="1.5" stroke-linecap="round" stroke-linejoin="round"/>
</svg>
