<svg width="25" height="26" viewBox="0 0 25 26" fill="none" xmlns="http://www.w3.org/2000/svg">
<path d="M22.335 13.7294L22.9167 11.5559C23.5962 9.01899 23.937 7.75112 23.6817 6.65312C23.4793 5.7863 23.0243 4.99898 22.3744 4.39074C21.552 3.62012 20.283 3.28037 17.7462 2.60087C15.2093 1.92024 13.9403 1.58049 12.8434 1.83587C11.9766 2.03827 11.1893 2.4932 10.581 3.14312C9.92066 3.84737 9.57641 4.87899 9.06454 6.75324L8.79004 7.77137L8.20841 9.94487C7.52779 12.4817 7.18804 13.7496 7.44341 14.8476C7.64581 15.7144 8.10074 16.5018 8.75066 17.11C9.57304 17.8806 10.842 18.2204 13.3789 18.901C15.6649 19.513 16.9215 19.8494 17.9509 19.7222C18.0634 19.7087 18.1737 19.6885 18.2817 19.6637C19.1482 19.462 19.9355 19.0078 20.544 18.3587C21.3147 17.5352 21.6544 16.2662 22.335 13.7294Z" stroke="#AAAAAA" stroke-width="1.6875"/>
<path d="M17.9509 19.7221C17.7157 20.4425 17.3025 21.0918 16.7494 21.6098C15.927 22.3805 14.658 22.7202 12.1212 23.3997C9.58429 24.0792 8.31529 24.4201 7.21841 24.1636C6.35172 23.9615 5.56442 23.507 4.95604 22.8575C4.18541 22.0351 3.84454 20.7661 3.16504 18.2292L2.58341 16.0557C1.90279 13.5188 1.56304 12.2498 1.81841 11.153C2.02081 10.2861 2.47574 9.49881 3.12566 8.89058C3.94804 8.11995 5.21704 7.7802 7.75391 7.09958C8.23316 6.97133 8.66854 6.85433 9.06454 6.75195" stroke="#AAAAAA" stroke-width="1.6875"/>
<path d="M12.7331 10.7515L18.1669 12.2072M11.859 14.0117L15.1193 14.8847" stroke="#AAAAAA" stroke-width="1.6875" stroke-linecap="round"/>
</svg>
